<svg xmlns="http://www.w3.org/2000/svg" viewBox="0 0 1037.3 897.29"><defs><style>.cls-1{fill:#020202;}.cls-2{fill:#bfbfbf;}.cls-3{fill:#fff;}.cls-4{fill:#47d6ab;}.cls-5{fill:#94d949;}.cls-6{fill:#5acce8;}.cls-7{fill:#fedc01;}.cls-8{fill:#8195dc;}.cls-9{fill:#c069c2;}.cls-10{fill:#fd5858;}.cls-11{fill:#fd9701;}.cls-12{fill:#030202;}.cls-13{fill:#050404;}.cls-14{fill:#040404;}</style></defs><g id="Layer_2" data-name="Layer 2"><g id="Layer_1-2" data-name="Layer 1"><path class="cls-1" d="M0,561.1V560c.72,1,1,.47,1.13-.37a81.32,81.32,0,0,1,1.65-9,155.94,155.94,0,0,1,21.56-51.41A209.35,209.35,0,0,1,53.7,464.12c1.26-1.23,2.55-2.43,3.74-3.73,3.51-3.79,3.77-6,1.24-10.45-.78-1.37-1.65-2.68-2.52-4a224.57,224.57,0,0,1-22.1-43.45,257.25,257.25,0,0,1-13.41-52A146.64,146.64,0,0,1,20.47,304a112.45,112.45,0,0,1,34.16-64.88c12.46-11.94,27-20.65,42.66-27.63A202.48,202.48,0,0,1,150.11,196a235,235,0,0,1,28.78-2.38,23.25,23.25,0,0,0,4.7-.45,4.69,4.69,0,0,0,3.84-3.88,20.38,20.38,0,0,0,.42-2.46q.36-4.71.64-9.42A220.5,220.5,0,0,1,219.9,76.67c8.71-14.73,18.71-28.47,31-40.48,23.48-23,51.74-34.78,84.5-36.08C348-.4,360.53.94,373,2.88A255.67,255.67,0,0,1,511.54,71a37.54,37.54,0,0,0,2.93,2.56c3.35,2.6,5.58,2.66,9.07.21a73.4,73.4,0,0,0,7.64-6.45,208.16,208.16,0,0,1,21.11-17.17C569.4,38,587.92,28.33,607.09,19.9,631.32,9.24,656.36,1.74,683,.49a163.13,163.13,0,0,1,45.52,3.89c24.38,5.77,45,18.1,62.26,36.12,25.34,26.38,41.91,57.57,51.09,92.83a281.1,281.1,0,0,1,7.92,46.46,50,50,0,0,0,1,8.26c1,3.68,2.86,5.33,6.63,5.59,1.47.11,3,.09,4.44.13a202.32,202.32,0,0,1,52,7.71c20.58,6.05,39.88,14.71,57.25,27.44,16.14,11.83,29,26.39,37.28,44.73a123.32,123.32,0,0,1,9.8,36,156.19,156.19,0,0,1,.4,33.83,195.14,195.14,0,0,1-6,31.59c-6,22.95-14.64,44.81-27.58,64.83-3,4.66-5.73,9.51-8.53,14.31-1.14,2-1.06,2.47.69,3.71,4.63,3.3,8.58,7.35,12.55,11.36,15.68,15.8,28.52,33.56,37,54.25,11.45,27.89,13.82,56.42,5.81,85.62-4.66,17-12.4,32.67-22,47.41-30.89,47.57-75.09,73.2-131.17,79.16-5.9.63-11.82.84-17.72,1.48-4.1.44-5.55,1.87-6,5.94-.59,5.62-1,11.26-1.56,16.87a172,172,0,0,1-12.35,48.78c-15.93,38.2-43.19,64.45-82.5,77.89a203.08,203.08,0,0,1-48,9.76,232.24,232.24,0,0,1-51.84-1.39,300.56,300.56,0,0,1-47.86-10.78c-14.88-4.55-29.49-9.74-43.38-16.83-18.28-9.33-33.94-21.75-45.69-38.78a12.78,12.78,0,0,0-.84-1.1c-1.6-1.8-3-1.93-4.79-.43a17.26,17.26,0,0,0-3,3.29,119.9,119.9,0,0,1-44.34,37,280.09,280.09,0,0,1-91.89,27.11,310,310,0,0,1-49.12,1.67,205.41,205.41,0,0,1-24.87-2.4c-12.9-2.09-25-6.47-36.79-12-30.22-14.25-53.19-35.94-67.68-66.24a169.83,169.83,0,0,1-15.83-60.32,94.85,94.85,0,0,0-1-10.22c-.69-3.65-2.79-6-6.52-6.63-2.46-.42-5-.74-7.43-1a273.25,273.25,0,0,1-44.11-8.47c-27.5-7.81-51.8-21.27-72.06-41.57-26.54-26.6-42.69-58.74-50.13-95.41-.42-2.08-.64-4.21-1-6.29C.91,584.8.41,585,0,585.56v-1.11c.38.56.8.72,1-.08a5.36,5.36,0,0,0-.09-1.53c0-3,.15-6.06.13-9.09s.2-5.88-.11-8.81A31.05,31.05,0,0,0,1,561.21C.92,560.32.39,560.63,0,561.1Zm221.29-90.57c.33,7.5.57,14.81,1,22.11A29.27,29.27,0,0,0,230,511.21a199.12,199.12,0,0,1,26.83,37.72c11.94,21.51,19.95,44.49,25.67,68.34,1,4,1.89,8.1,2.83,12.15a5.59,5.59,0,0,0,5.07,4.77c.55.07,1.1.2,1.65.26l41.37,4.94a340.75,340.75,0,0,1,55.43,11.21c32.13,9.41,61.68,23.89,88,44.68,13.83,10.91,26.79,22.83,40.06,34.39,2.42,2.11,2.4,2.16,4.88.3,10.87-8.2,21.77-16.36,32.6-24.61,15.57-11.85,31.73-22.77,49.08-31.86,24.31-12.73,50.1-21.39,76.69-27.87,15.92-3.89,32-6.85,48.22-9.31,7.32-1.11,14.61-2.5,22.06-2.56,2.4,0,4.81-.2,7.21-.38,6.55-.52,9.72-3.17,11.38-9.47.23-.89.43-1.8.6-2.7.84-4.45,1.5-8.94,2.52-13.35,4.78-20.74,12.52-40.41,21.65-59.57,6.82-14.29,14.36-28.19,22.25-41.91a36.57,36.57,0,0,0,4.87-14.05c.89-7.62,1.6-15.26,2.19-22.92a162.7,162.7,0,0,0-1.4-37.94,199.71,199.71,0,0,0-18.05-56.6c-11.1-22.73-25.78-43-42.72-61.66-5.05-5.56-10.31-10.91-15.35-16.47a31.91,31.91,0,0,1-8-16.21c-.63-3.64-.91-7.34-1.28-11a356.62,356.62,0,0,0-5.13-36.24,124.6,124.6,0,0,0-17.81-44,84.44,84.44,0,0,0-10.32-13.06c-4.91-5-9.47-5.63-15.51-2.14-4.33,2.5-8.5,5.26-12.76,7.86a108.37,108.37,0,0,0-16.84,12.68c-5.61,5.14-10.72,10.77-15.86,16.37-3.07,3.34-6,6.78-9.19,10a21.51,21.51,0,0,1-13,6.77,24.73,24.73,0,0,1-9.59-1.05c-14.91-4-29.68-8.52-44.79-11.75a171.53,171.53,0,0,0-33.57-4.15,114.13,114.13,0,0,0-19.35,1.58c-15.44,2.44-30.81,5.29-46.06,8.77-10.63,2.42-21.23,5-31.86,7.47a23.07,23.07,0,0,1-22.28-6.13c-2.95-2.81-5.89-5.63-8.76-8.53a329,329,0,0,0-39.52-34.1,45.56,45.56,0,0,0-9-5.42,10.56,10.56,0,0,0-11.66,1.74,33.08,33.08,0,0,0-5.27,5.69,150.16,150.16,0,0,0-17.25,29.39c-6.31,14.21-8.94,29.3-10.5,44.62-.95,9.3-2.09,18.57-3.51,27.8a25.14,25.14,0,0,1-9.1,16.33,81.59,81.59,0,0,0-7.37,7.16,231.26,231.26,0,0,0-20.27,24.67c-8.93,12.51-18,24.91-25.48,38.39C227.36,401.57,220.38,435.23,221.29,470.53ZM342.39,859c5.1-.19,10.2-.25,15.28-.59a248.79,248.79,0,0,0,35.73-4.92,268.54,268.54,0,0,0,53.51-17.24c25.85-11.59,42.77-31.13,51.09-58.18,1.63-5.29.56-9.76-3.46-13.67-5.58-5.42-11-11-16.5-16.52a252.38,252.38,0,0,0-22.2-20.17c-27.15-21.68-58-35.76-91.47-44.33a322,322,0,0,0-41.46-7.64,235.69,235.69,0,0,0-24.62-2c-10.7-.17-21.24,1.21-31.76,2.95-16,2.65-27.76,11.15-35.57,25.23a77,77,0,0,0-6.61,17.63c-4.87,18.14-5.34,36.33-.53,54.57,4.24,16.07,11.9,30.46,21.83,43.69a96.4,96.4,0,0,0,52.5,35.75C312.63,857.6,327.45,858.79,342.39,859ZM697,858.55c6-.1,11.45,0,16.92-.49a119,119,0,0,0,42.13-11.24c23.93-11.46,41.12-29.27,51.12-53.92a144.47,144.47,0,0,0,8.47-31.56c1.49-9.24,2.31-18.5,1.35-27.9-2-19.17-10.33-35.18-23.83-48.59a38.86,38.86,0,0,0-29.11-11.64c-3.61.07-7.21.3-10.82.53-11.09.72-22.13,1.81-33.13,3.42a348.36,348.36,0,0,0-59.62,14.05c-27.16,9-52.5,21.65-75.45,38.86-14.42,10.81-27.41,23.24-40.48,35.58a18.3,18.3,0,0,0-1.81,2.11,13.16,13.16,0,0,0-2,13.6c1.15,2.93,2.33,5.85,3.67,8.7,10,21.18,25.45,36.86,47.07,46.25C625.35,851,660.63,858.69,697,858.55ZM176.51,699.23c2,0,4.08,0,6.12,0a11,11,0,0,0,9.92-6c.4-.73.75-1.48,1.12-2.23,1.6-3.13,3.12-6.3,4.81-9.38,9.26-16.85,22-30.08,39.56-38.46a39.22,39.22,0,0,0,4.55-2.67c3.57-2.34,4.82-5.63,4-9.82s-1.91-8.1-3.08-12.09c-6.84-23.4-16.39-45.58-29.75-66a206.29,206.29,0,0,0-21.06-27.21,36.26,36.26,0,0,1-9.45-18.81c-1.27-7.31-1.59-14.7-2.11-22.08a71.42,71.42,0,0,1,.26-14.4,35.18,35.18,0,0,0,0-8.58c-.44-4.11-2.35-5.86-6.55-5.93a28,28,0,0,0-3.89.07c-8.16,1.08-16.37,1.81-24.49,3.21a128.66,128.66,0,0,0-53.68,22.07C73,494.92,58.5,513.42,47.86,535A86.06,86.06,0,0,0,39,573.92a88.41,88.41,0,0,0,3.28,21.88C54,641,81.76,672,125,689.27,141.46,695.86,158.8,698.62,176.51,699.23Zm822.05-130a82.63,82.63,0,0,0-7.35-32c-4.9-11-11.71-20.78-19.17-30.16-14.9-18.76-33.25-32.84-55.77-41.32a150.9,150.9,0,0,0-37.51-8.53c-2.2-.23-4.42-.43-6.64-.53-4.93-.2-6.81,1.39-7.35,6.24-.27,2.38-.45,4.79-.52,7.19-.19,6.58-.38,13.15-1.2,19.68-1.3,10.38-4,20.32-9.26,29.45-8.31,14.45-16,29.24-23.48,44.12-6.13,12.14-12.08,24.37-16.5,37.28A117.63,117.63,0,0,0,807,638.44a15.54,15.54,0,0,0,6.11,13.06,109.44,109.44,0,0,1,31.73,39.85,20.38,20.38,0,0,0,2.54,4.29,8.17,8.17,0,0,0,7,3.4c1.85-.08,3.71-.08,5.55-.29q10.89-1.21,21.78-2.56a143.08,143.08,0,0,0,29-6.35c27.79-9.57,49.52-27,66.13-51C990.75,618.55,998.21,596.14,998.56,569.26ZM57.17,327.9A92,92,0,0,0,58,342a238.17,238.17,0,0,0,9.3,40.22c4.4,13.84,10.35,26.94,19,38.72a59.32,59.32,0,0,0,6.25,7.44A9.82,9.82,0,0,0,103,431c1.76-.55,3.48-1.24,5.21-1.89A173.51,173.51,0,0,1,148,419.17c7.1-.88,14.24-.85,21.34-1.47,8.32-.74,14.85-4.25,18.69-12a40.76,40.76,0,0,0,2.32-5.64c2.41-7.68,4.55-15.44,7.34-23,8.17-22.06,19.89-42.14,33.86-61a425.37,425.37,0,0,1,31.17-36.94,30.67,30.67,0,0,0,6.05-8.58,19.39,19.39,0,0,0,1.83-10.52,17.64,17.64,0,0,0-6.86-11.68,37.38,37.38,0,0,0-16.24-7.46q-17.16-3.32-34.35-6.57c-9.1-1.71-18.24-3.28-27.56-2.85-4.9.23-9.79.68-14.68,1a202.69,202.69,0,0,0-28.29,3.95,144.46,144.46,0,0,0-50.41,21c-11.85,8-21.28,18.08-27.28,31.17C59.31,300.85,57,313.66,57.17,327.9ZM226.23,184c0,2-.06,4.08,0,6.11a8.58,8.58,0,0,0,5.46,8,20.46,20.46,0,0,0,3.15,1.06c11.53,3.07,23.15,5.8,34.78,8.45,2.89.65,5.76,1.38,8.67,1.95,2.18.42,3-.12,3.84-2.2a31.54,31.54,0,0,0,1-3.18c5.78-21.24,16.84-39.36,32.44-54.79a57.24,57.24,0,0,1,13-9.84,43.31,43.31,0,0,1,19.06-5.39,49.32,49.32,0,0,1,24.1,5.47,178.88,178.88,0,0,1,55.47,42c4.13,4.65,8.89,6.22,14.93,4.6,6.52-1.76,13.1-3.3,19.68-4.79,8.48-1.91,17-3.64,25.49-5.53,4.65-1,6.58-3.3,7.09-8,.52-4.87,1-9.74,1.5-14.62.94-10,2.34-19.83,4.26-29.63a16.18,16.18,0,0,0-3.3-14.09c-1.29-1.57-2.64-3.11-4-4.58a199.55,199.55,0,0,0-51.93-39.1c-18.9-10-38.87-17.22-59.43-23-15.75-4.39-31.69-6.52-48-5a91.66,91.66,0,0,0-35.15,10.43c-14.76,7.87-26.67,19-36.36,32.49a195.24,195.24,0,0,0-29,60.56A174.39,174.39,0,0,0,226.23,184ZM693.17,38.84c-4,.26-8,.34-11.95.67a179.79,179.79,0,0,0-42,8.74c-25.11,8.3-48,20.83-69.37,36.3-14.76,10.72-24.7,25.1-30.47,42.38a106.87,106.87,0,0,0-4.85,24.71,91.24,91.24,0,0,0-.11,13.33c.2,3.11,1.34,4.46,4.31,5.39a20.45,20.45,0,0,0,2.16.5c6.17,1.21,12.35,2.4,18.51,3.62,14.52,2.85,29.05,5.63,43.54,8.62a13.72,13.72,0,0,0,14-4.57,181.69,181.69,0,0,1,29.36-25.82c9.5-6.8,19.31-13.09,30.18-17.57,11.39-4.7,22.91-5.58,34.62-1.19,8.54,3.2,15.43,8.69,21.44,15.4a136.91,136.91,0,0,1,16.32,23.44c6,10.43,12,20.89,17.95,31.32,1.39,2.42,1.49,2.44,4.2,1.82Q783.7,203,796.39,200c3-.68,6-1.2,8.93-2,4.3-1.15,6.27-3.79,6.46-8.26,0-.55,0-1.11,0-1.66a171,171,0,0,0-2.89-27.84,187.54,187.54,0,0,0-29.23-72.6c-6-9-12.41-17.77-20.42-25.19C740.59,45.2,718.35,37.88,693.17,38.84ZM981,325.86a87.29,87.29,0,0,0-1.18-15.49A75.14,75.14,0,0,0,956,266c-9.88-9.09-21.4-15.52-33.7-20.66-21.38-8.93-43.75-12.94-66.83-13.43a128,128,0,0,0-21.08.88c-8,1.15-15.9,2.47-23.85,3.72a75.66,75.66,0,0,0-25.46,8.34c-7.21,4-10.85,12-9,20.91a20,20,0,0,0,5.4,9.54,410.58,410.58,0,0,1,45.61,58.4c15,23.44,26.64,48.26,31.43,75.92.69,4,3.13,6.21,7,6.87,5.83,1,11.68,1.93,17.53,2.85,11.88,1.86,23.74,3.82,35.45,6.62,6.3,1.5,12.48,3.49,18.85,4.69a10.14,10.14,0,0,0,9.82-3.2,37.26,37.26,0,0,0,3.71-4.85A164.07,164.07,0,0,0,972.26,378,192,192,0,0,0,981,325.86Z"/><path class="cls-2" d="M.91,564.94c.31,2.93.09,5.88.11,8.81s-.08,6.06-.13,9.09L0,582.78V565Z"/><path class="cls-3" d="M.91,564.94,0,565V561.1c.39-.47.92-.78,1,.11A31.05,31.05,0,0,1,.91,564.94Z"/><path class="cls-3" d="M0,582.78l.89.06A5.36,5.36,0,0,1,1,584.37c-.18.8-.6.64-1,.08Z"/><path class="cls-3" d="M221.29,470.53c-.91-35.3,6.07-69,23.34-100.22,7.45-13.48,16.55-25.88,25.48-38.39a231.26,231.26,0,0,1,20.27-24.67,81.59,81.59,0,0,1,7.37-7.16,25.14,25.14,0,0,0,9.1-16.33c1.42-9.23,2.56-18.5,3.51-27.8,1.56-15.32,4.19-30.41,10.5-44.62A150.16,150.16,0,0,1,338.11,182a33.08,33.08,0,0,1,5.27-5.69A10.56,10.56,0,0,1,355,174.52a45.56,45.56,0,0,1,9,5.42A329,329,0,0,1,403.58,214c2.87,2.9,5.81,5.72,8.76,8.53a23.07,23.07,0,0,0,22.28,6.13c10.63-2.44,21.23-5,31.86-7.47,15.25-3.48,30.62-6.33,46.06-8.77a114.13,114.13,0,0,1,19.35-1.58A171.53,171.53,0,0,1,565.46,215c15.11,3.23,29.88,7.76,44.79,11.75a24.73,24.73,0,0,0,9.59,1.05,21.51,21.51,0,0,0,13-6.77c3.15-3.26,6.12-6.7,9.19-10,5.14-5.6,10.25-11.23,15.86-16.37A108.37,108.37,0,0,1,674.78,182c4.26-2.6,8.43-5.36,12.76-7.86,6-3.49,10.6-2.82,15.51,2.14a84.44,84.44,0,0,1,10.32,13.06,124.6,124.6,0,0,1,17.81,44,356.62,356.62,0,0,1,5.13,36.24c.37,3.68.65,7.38,1.28,11a31.91,31.91,0,0,0,8,16.21c5,5.56,10.3,10.91,15.35,16.47,16.94,18.68,31.62,38.93,42.72,61.66a199.71,199.71,0,0,1,18.05,56.6,162.7,162.7,0,0,1,1.4,37.94c-.59,7.66-1.3,15.3-2.19,22.92a36.57,36.57,0,0,1-4.87,14.05c-7.89,13.72-15.43,27.62-22.25,41.91-9.13,19.16-16.87,38.83-21.65,59.57-1,4.41-1.68,8.9-2.52,13.35-.17.9-.37,1.81-.6,2.7-1.66,6.3-4.83,9-11.38,9.47-2.4.18-4.81.36-7.21.38-7.45.06-14.74,1.45-22.06,2.56-16.19,2.46-32.3,5.42-48.22,9.31-26.59,6.48-52.38,15.14-76.69,27.87-17.35,9.09-33.51,20-49.08,31.86-10.83,8.25-21.73,16.41-32.6,24.61-2.48,1.86-2.46,1.81-4.88-.3-13.27-11.56-26.23-23.48-40.06-34.39-26.35-20.79-55.9-35.27-88-44.68a340.75,340.75,0,0,0-55.43-11.21L292,634.45c-.55-.06-1.1-.19-1.65-.26a5.59,5.59,0,0,1-5.07-4.77c-.94-4-1.86-8.11-2.83-12.15-5.72-23.85-13.73-46.83-25.67-68.34A199.12,199.12,0,0,0,230,511.21a29.27,29.27,0,0,1-7.68-18.57C221.86,485.34,221.62,478,221.29,470.53Zm436.45,23.36c20,0,35.61-15.39,35.58-35.23,0-19.3-15.86-34.82-35.51-34.81a34.55,34.55,0,0,0-35,34.87C622.85,478.61,638,493.86,657.74,493.89Zm-270.89,0c19.63,0,34.84-15.29,35-35.18a35.19,35.19,0,0,0-70.37.12C351.44,478.55,366.91,493.87,386.85,493.89Zm135.2-18.69.6.38a2,2,0,0,1,.47.28c.61.57,1.2,1.15,1.8,1.73a42.59,42.59,0,0,0,18.8,10.8c6.9,1.9,13.9,2,20.95,1.56,5.62-.37,9.18-3.9,9.86-9.77.64-5.53-2.22-9.8-7.55-11.37a21.74,21.74,0,0,0-6.62-.57,39.17,39.17,0,0,1-8.85-.54c-7.43-1.55-12.76-5.63-15.6-12.77a31.61,31.61,0,0,1-2.09-9.16c-.3-3.61-1.44-6.92-4.62-9.08a11.45,11.45,0,0,0-17.65,7.07c-.47,2.26-.64,4.58-1.09,6.85-1.38,7-5.11,12.22-11.65,15.25a24.8,24.8,0,0,1-10.75,2.41c-2.41,0-4.83-.14-7.23,0-6.11.32-10.41,4.68-10.43,10.44,0,6.47,3.86,10.77,10.22,11.22a80.73,80.73,0,0,0,10.55.1,44.83,44.83,0,0,0,29.36-12.83A16.84,16.84,0,0,0,522.05,475.2ZM686.81,206.88a13.87,13.87,0,0,0-5.76,1.19,50.5,50.5,0,0,0-23.46,19.67c-4.3,6.69-3.25,13.34,2.57,18.77a35.38,35.38,0,0,0,8,5.41c5.59,2.88,11.2,5.72,16.8,8.58a33.32,33.32,0,0,0,5.6,2.39c6.52,1.93,12.55-.51,15.46-6.42a17.32,17.32,0,0,0,1.9-10.73c-.27-1.55-.43-3.11-.67-4.67-1-6.49-2-13-4.43-19.14a32.35,32.35,0,0,0-6.12-10.49A12.64,12.64,0,0,0,686.81,206.88Zm-351.2,42.53a18.24,18.24,0,0,0,2.64,9.25c2.41,4.38,6.18,6.42,11.08,6.69a13.69,13.69,0,0,0,6.49-1.23,199.37,199.37,0,0,0,27.1-14.55c8-5.27,9.06-12.93,3.12-20.42-.11-.15-.23-.29-.35-.44a81.86,81.86,0,0,0-20.63-17.55,18.34,18.34,0,0,0-3.76-1.75c-5.75-1.91-10.61-.32-14.17,4.58a36,36,0,0,0-4.55,9.78c-2.48,7.26-4.22,14.74-6.44,22.09A24.3,24.3,0,0,0,335.61,249.41Z"/><path class="cls-4" d="M342.39,859c-14.94-.22-29.76-1.41-44.24-5.47a96.4,96.4,0,0,1-52.5-35.75c-9.93-13.23-17.59-27.62-21.83-43.69-4.81-18.24-4.34-36.43.53-54.57A77,77,0,0,1,231,701.9c7.81-14.08,19.58-22.58,35.57-25.23,10.52-1.74,21.06-3.12,31.76-2.95a235.69,235.69,0,0,1,24.62,2,322,322,0,0,1,41.46,7.64c33.5,8.57,64.32,22.65,91.47,44.33A252.38,252.38,0,0,1,478,747.89c5.47,5.55,10.92,11.1,16.5,16.52,4,3.91,5.09,8.38,3.46,13.67-8.32,27-25.24,46.59-51.09,58.18A268.54,268.54,0,0,1,393.4,853.5a248.79,248.79,0,0,1-35.73,4.92C352.59,858.76,347.49,858.82,342.39,859Z"/><path class="cls-5" d="M697,858.55c-36.39.14-71.67-7.56-105.48-22.24-21.62-9.39-37.06-25.07-47.07-46.25-1.34-2.85-2.52-5.77-3.67-8.7a13.16,13.16,0,0,1,2-13.6,18.3,18.3,0,0,1,1.81-2.11c13.07-12.34,26.06-24.77,40.48-35.58,23-17.21,48.29-29.82,75.45-38.86a348.36,348.36,0,0,1,59.62-14.05c11-1.61,22-2.7,33.13-3.42,3.61-.23,7.21-.46,10.82-.53a38.86,38.86,0,0,1,29.11,11.64c13.5,13.41,21.86,29.42,23.83,48.59,1,9.4.14,18.66-1.35,27.9a144.47,144.47,0,0,1-8.47,31.56c-10,24.65-27.19,42.46-51.12,53.92a119,119,0,0,1-42.13,11.24C708.47,858.5,703,858.45,697,858.55Z"/><path class="cls-6" d="M176.51,699.23c-17.71-.61-35-3.37-51.54-10C81.76,672,54,641,42.29,595.8A88.41,88.41,0,0,1,39,573.92,86.06,86.06,0,0,1,47.86,535C58.5,513.42,73,494.92,92.75,480.84a128.66,128.66,0,0,1,53.68-22.07c8.12-1.4,16.33-2.13,24.49-3.21a28,28,0,0,1,3.89-.07c4.2.07,6.11,1.82,6.55,5.93a35.18,35.18,0,0,1,0,8.58,71.42,71.42,0,0,0-.26,14.4c.52,7.38.84,14.77,2.11,22.08a36.26,36.26,0,0,0,9.45,18.81,206.29,206.29,0,0,1,21.06,27.21c13.36,20.47,22.91,42.65,29.75,66,1.17,4,2.28,8,3.08,12.09s-.44,7.48-4,9.82a39.22,39.22,0,0,1-4.55,2.67c-17.52,8.38-30.3,21.61-39.56,38.46-1.69,3.08-3.21,6.25-4.81,9.38-.37.75-.72,1.5-1.12,2.23a11,11,0,0,1-9.92,6C180.59,699.27,178.55,699.23,176.51,699.23Z"/><path class="cls-7" d="M998.56,569.26c-.35,26.88-7.81,49.29-21.82,69.56-16.61,24-38.34,41.45-66.13,51a143.08,143.08,0,0,1-29,6.35q-10.87,1.35-21.78,2.56c-1.84.21-3.7.21-5.55.29a8.17,8.17,0,0,1-7-3.4,20.38,20.38,0,0,1-2.54-4.29,109.44,109.44,0,0,0-31.73-39.85A15.54,15.54,0,0,1,807,638.44a117.63,117.63,0,0,1,6.83-37.79c4.42-12.91,10.37-25.14,16.5-37.28,7.51-14.88,15.17-29.67,23.48-44.12,5.24-9.13,8-19.07,9.26-29.45.82-6.53,1-13.1,1.2-19.68.07-2.4.25-4.81.52-7.19.54-4.85,2.42-6.44,7.35-6.24,2.22.1,4.44.3,6.64.53a150.9,150.9,0,0,1,37.51,8.53c22.52,8.48,40.87,22.56,55.77,41.32,7.46,9.38,14.27,19.16,19.17,30.16A82.63,82.63,0,0,1,998.56,569.26Z"/><path class="cls-8" d="M57.17,327.9c-.21-14.24,2.14-27,7.72-39.21,6-13.09,15.43-23.2,27.28-31.17a144.46,144.46,0,0,1,50.41-21,202.69,202.69,0,0,1,28.29-3.95c4.89-.36,9.78-.81,14.68-1,9.32-.43,18.46,1.14,27.56,2.85q17.19,3.22,34.35,6.57a37.38,37.38,0,0,1,16.24,7.46,17.64,17.64,0,0,1,6.86,11.68,19.39,19.39,0,0,1-1.83,10.52,30.67,30.67,0,0,1-6.05,8.58,425.37,425.37,0,0,0-31.17,36.94c-14,18.84-25.69,38.92-33.86,61-2.79,7.56-4.93,15.32-7.34,23a40.76,40.76,0,0,1-2.32,5.64c-3.84,7.74-10.37,11.25-18.69,12-7.1.62-14.24.59-21.34,1.47a173.51,173.51,0,0,0-39.76,9.93c-1.73.65-3.45,1.34-5.21,1.89a9.82,9.82,0,0,1-10.45-2.66,59.32,59.32,0,0,1-6.25-7.44c-8.63-11.78-14.58-24.88-19-38.72A238.17,238.17,0,0,1,58,342,92,92,0,0,1,57.17,327.9Z"/><path class="cls-9" d="M226.23,184A174.39,174.39,0,0,1,233,141.33a195.24,195.24,0,0,1,29-60.56c9.69-13.5,21.6-24.62,36.36-32.49a91.66,91.66,0,0,1,35.15-10.43c16.35-1.49,32.29.64,48,5,20.56,5.74,40.53,12.94,59.43,23a199.55,199.55,0,0,1,51.93,39.1c1.4,1.47,2.75,3,4,4.58a16.18,16.18,0,0,1,3.3,14.09c-1.92,9.8-3.32,19.68-4.26,29.63-.46,4.88-1,9.75-1.5,14.62-.51,4.72-2.44,7-7.09,8-8.48,1.89-17,3.62-25.49,5.53-6.58,1.49-13.16,3-19.68,4.79-6,1.62-10.8.05-14.93-4.6a178.88,178.88,0,0,0-55.47-42,49.32,49.32,0,0,0-24.1-5.47,43.31,43.31,0,0,0-19.06,5.39,57.24,57.24,0,0,0-13,9.84c-15.6,15.43-26.66,33.55-32.44,54.79a31.54,31.54,0,0,1-1,3.18c-.81,2.08-1.66,2.62-3.84,2.2-2.91-.57-5.78-1.3-8.67-1.95-11.63-2.65-23.25-5.38-34.78-8.45a20.46,20.46,0,0,1-3.15-1.06,8.58,8.58,0,0,1-5.46-8C226.17,188,226.23,186,226.23,184Z"/><path class="cls-10" d="M693.17,38.84c25.18-1,47.42,6.36,66.08,23.65,8,7.42,14.4,16.17,20.42,25.19a187.54,187.54,0,0,1,29.23,72.6,171,171,0,0,1,2.89,27.84c0,.55,0,1.11,0,1.66-.19,4.47-2.16,7.11-6.46,8.26-2.94.8-6,1.32-8.93,2Q783.69,203,771,205.93c-2.71.62-2.81.6-4.2-1.82-6-10.43-11.94-20.89-17.95-31.32a136.91,136.91,0,0,0-16.32-23.44c-6-6.71-12.9-12.2-21.44-15.4-11.71-4.39-23.23-3.51-34.62,1.19-10.87,4.48-20.68,10.77-30.18,17.57a181.69,181.69,0,0,0-29.36,25.82,13.72,13.72,0,0,1-14,4.57c-14.49-3-29-5.77-43.54-8.62-6.16-1.22-12.34-2.41-18.51-3.62a20.45,20.45,0,0,1-2.16-.5c-3-.93-4.11-2.28-4.31-5.39a91.24,91.24,0,0,1,.11-13.33,106.87,106.87,0,0,1,4.85-24.71c5.77-17.28,15.71-31.66,30.47-42.38,21.33-15.47,44.26-28,69.37-36.3a179.79,179.79,0,0,1,42-8.74C685.2,39.18,689.17,39.1,693.17,38.84Z"/><path class="cls-11" d="M981,325.86A192,192,0,0,1,972.26,378a164.07,164.07,0,0,1-21.4,44.65,37.26,37.26,0,0,1-3.71,4.85,10.14,10.14,0,0,1-9.82,3.2c-6.37-1.2-12.55-3.19-18.85-4.69-11.71-2.8-23.57-4.76-35.45-6.62-5.85-.92-11.7-1.84-17.53-2.85-3.87-.66-6.31-2.89-7-6.87-4.79-27.66-16.41-52.48-31.43-75.92a410.58,410.58,0,0,0-45.61-58.4,20,20,0,0,1-5.4-9.54c-1.86-8.89,1.78-16.87,9-20.91a75.66,75.66,0,0,1,25.46-8.34c8-1.25,15.89-2.57,23.85-3.72a128,128,0,0,1,21.08-.88c23.08.49,45.45,4.5,66.83,13.43,12.3,5.14,23.82,11.57,33.7,20.66a75.14,75.14,0,0,1,23.89,44.37A87.29,87.29,0,0,1,981,325.86Z"/><path class="cls-12" d="M657.74,493.89c-19.77,0-34.89-15.28-34.89-35.17a34.55,34.55,0,0,1,35-34.87c19.65,0,35.48,15.51,35.51,34.81C693.35,478.5,677.78,493.92,657.74,493.89Z"/><path class="cls-12" d="M386.85,493.89c-19.94,0-35.41-15.34-35.41-35.06a35.19,35.19,0,0,1,70.37-.12C421.69,478.6,406.48,493.9,386.85,493.89Z"/><path class="cls-13" d="M522.05,475.2a16.84,16.84,0,0,1-1.52,2A44.83,44.83,0,0,1,491.17,490a80.73,80.73,0,0,1-10.55-.1c-6.36-.45-10.25-4.75-10.22-11.22,0-5.76,4.32-10.12,10.43-10.44,2.4-.13,4.82,0,7.23,0a24.8,24.8,0,0,0,10.75-2.41c6.54-3,10.27-8.27,11.65-15.25.45-2.27.62-4.59,1.09-6.85a11.45,11.45,0,0,1,17.65-7.07c3.18,2.16,4.32,5.47,4.62,9.08a31.61,31.61,0,0,0,2.09,9.16c2.84,7.14,8.17,11.22,15.6,12.77a39.17,39.17,0,0,0,8.85.54,21.74,21.74,0,0,1,6.62.57c5.33,1.57,8.19,5.84,7.55,11.37-.68,5.87-4.24,9.4-9.86,9.77-7,.46-14,.34-20.95-1.56a42.59,42.59,0,0,1-18.8-10.8c-.6-.58-1.19-1.16-1.8-1.73a2,2,0,0,0-.47-.28Z"/><path class="cls-14" d="M686.81,206.88a12.64,12.64,0,0,1,9.92,4.56,32.35,32.35,0,0,1,6.12,10.49c2.38,6.17,3.44,12.65,4.43,19.14.24,1.56.4,3.12.67,4.67a17.32,17.32,0,0,1-1.9,10.73c-2.91,5.91-8.94,8.35-15.46,6.42a33.32,33.32,0,0,1-5.6-2.39c-5.6-2.86-11.21-5.7-16.8-8.58a35.38,35.38,0,0,1-8-5.41c-5.82-5.43-6.87-12.08-2.57-18.77a50.5,50.5,0,0,1,23.46-19.67A13.87,13.87,0,0,1,686.81,206.88Z"/><path class="cls-14" d="M335.61,249.41a24.3,24.3,0,0,1,.53-3.55c2.22-7.35,4-14.83,6.44-22.09a36,36,0,0,1,4.55-9.78c3.56-4.9,8.42-6.49,14.17-4.58a18.34,18.34,0,0,1,3.76,1.75,81.86,81.86,0,0,1,20.63,17.55c.12.15.24.29.35.44,5.94,7.49,4.9,15.15-3.12,20.42a199.37,199.37,0,0,1-27.1,14.55,13.69,13.69,0,0,1-6.49,1.23c-4.9-.27-8.67-2.31-11.08-6.69A18.24,18.24,0,0,1,335.61,249.41Z"/></g></g></svg>